<?xml version="1.0" encoding="UTF-8" standalone="no"?>
<svg
   xmlns:dc="http://purl.org/dc/elements/1.1/"
   xmlns:cc="http://creativecommons.org/ns#"
   xmlns:rdf="http://www.w3.org/1999/02/22-rdf-syntax-ns#"
   xmlns:svg="http://www.w3.org/2000/svg"
   xmlns="http://www.w3.org/2000/svg"
   xmlns:sodipodi="http://sodipodi.sourceforge.net/DTD/sodipodi-0.dtd"
   xmlns:inkscape="http://www.inkscape.org/namespaces/inkscape"
   width="423pt"
   height="60pt"
   viewBox="0 0 1006.4483 140.80807"
   version="1.1"
   id="svg62"
   sodipodi:docname="Valorant_logo_-_pink_color_version.svg"
   inkscape:version="1.0.1 (3bc2e813f5, 2020-09-07)">
  <metadata
     id="metadata68">
    <rdf:RDF>
      <cc:Work
         rdf:about="">
        <dc:format>image/svg+xml</dc:format>
        <dc:type
           rdf:resource="http://purl.org/dc/dcmitype/StillImage" />
        <dc:title></dc:title>
      </cc:Work>
    </rdf:RDF>
  </metadata>
  <defs
     id="defs66" />
  <sodipodi:namedview
     pagecolor="#ffffff"
     bordercolor="#666666"
     borderopacity="1"
     objecttolerance="10"
     gridtolerance="10"
     guidetolerance="10"
     inkscape:pageopacity="0"
     inkscape:pageshadow="2"
     inkscape:window-width="1920"
     inkscape:window-height="1017"
     id="namedview64"
     showgrid="false"
     inkscape:zoom="1.5177797"
     inkscape:cx="273.81746"
     inkscape:cy="139.55775"
     inkscape:window-x="-8"
     inkscape:window-y="-8"
     inkscape:window-maximized="1"
     inkscape:current-layer="svg62" />
  <g
     id="f000000ff" />
  <path
     fill="#ff4655"
     opacity="1"
     d="m 9.0291438,15.777921 c 0.87619,-0.5224 1.4345202,0.53345 1.9071702,1.08901 30.41243,38.046641 60.86079,76.065643 91.270446,114.112269 0.62467,0.54175 0.15202,1.69987 -0.691,1.57549 -14.560806,0.0164 -29.124396,0.006 -43.685216,0.006 -1.16641,0.0137 -2.28307,-0.56663 -2.99895,-1.47598 -15.1081,-18.87564 -30.20789,-37.759375 -45.3159802,-56.637578 -0.64125,-0.76288 -0.9729405,-1.74962 -0.9314805,-2.7419 0,-18.23695 0.005,-36.476681 -0.005,-54.713631 0.008,-0.43119 -0.008,-0.98951 0.4505405,-1.2134 z"
     id="path41"
     style="fill:#e908f8;fill-opacity:1;stroke:#ffffff;stroke-width:3.7176;stroke-miterlimit:4;stroke-dasharray:none;stroke-opacity:1" />
  <path
     fill="#ff4655"
     opacity="1"
     d="m 149.68421,15.689471 c 0.6219,-0.23494 1.30738,0.33997 1.21616,0.99228 0.0221,18.245249 -0.002,36.490501 0.0111,54.735741 0.0414,1.03374 -0.18519,2.10341 -0.85685,2.91603 -4.59102,5.743622 -9.18757,11.484472 -13.77859,17.225332 -0.76564,0.99505 -2.01773,1.545091 -3.26983,1.481511 -14.46408,-0.0137 -28.93092,0.008 -43.395006,-0.0111 -0.85408,0.13267 -1.34055,-1.019911 -0.71035,-1.575481 20.058476,-25.094512 40.133496,-50.1807 60.202986,-75.26963 0.15204,-0.21559 0.34551,-0.38144 0.58045,-0.49476 z"
     id="path43"
     style="fill:#e908f8;fill-opacity:1;stroke:#ffffff;stroke-width:3.7176;stroke-miterlimit:4;stroke-dasharray:none;stroke-opacity:1" />
  <path
     fill="#ff4655"
     opacity="1"
     d="m 494.2339,10.648641 c 12.50447,-1.9213503 25.63102,0.29135 36.74963,6.37036 10.77999,5.834899 19.63867,15.15027 24.90658,26.22949 5.84279,12.150141 7.20507,26.355491 3.9057,39.426933 -3.134,12.654101 -10.717,24.134926 -21.06393,32.064396 -17.69368,13.93762 -43.62394,15.99283 -63.3256,5.10259 -11.33906,-6.08688 -20.53632,-16.03219 -25.72555,-27.812246 -6.53572,-14.630562 -6.62234,-31.977782 -0.25197,-46.687093 7.67753,-18.23702 25.20582,-31.86754 44.80514,-34.69443 m 3.1576,19.6859 c -12.55173,1.897719 -23.59161,10.811499 -28.51305,22.457681 -5.08687,11.59106 -4.08681,25.6468 2.69303,36.348052 5.55927,9.016151 15.04003,15.583376 25.52865,17.268486 10.66191,1.8741 22.01674,-1.42526 30.14307,-8.543685 9.26814,-7.929491 14.28409,-20.433973 13.23682,-32.576243 -0.78744,-10.83512 -6.34677,-21.229281 -15.01643,-27.804372 -7.85861,-6.07901 -18.25276,-8.76416 -28.07209,-7.149919 z"
     id="path45"
     style="fill:#e908f8;fill-opacity:1;stroke:#ffffff;stroke-width:3.7176;stroke-miterlimit:4;stroke-dasharray:none;stroke-opacity:1" />
  <path
     fill="#ff4655"
     opacity="1"
     d="m 185.15731,13.333791 c 4.86637,-1.32289 10.0083,-0.25198 14.98492,-0.62995 1.77173,0.24411 4.46474,-0.66932 5.4648,1.33077 0.34648,2.60642 0.12599,5.24433 0.15757,7.874359 0,22.92227 -0.007,45.852412 0,68.774684 20.09538,-25.111342 40.1671,-50.238433 60.23888,-75.365523 1.04727,-1.30714 2.47252,-2.46467 4.22852,-2.49617 5.76404,-0.25198 11.53595,0.0315 17.30786,-0.11024 2.15757,0.0394 4.55136,-0.3701 6.39398,1.06304 -6.71683,8.85078 -13.83525,17.394459 -20.71747,26.11926 -20.63079,25.827901 -41.2695,51.647933 -61.90822,77.467969 -1.53549,1.87409 -2.88203,3.93718 -4.71673,5.5593 -1.80323,1.48825 -4.31516,1.02366 -6.47272,1.14178 -4.98448,-0.17323 -10.00044,0.26773 -14.9613,-0.34647 z"
     id="path47"
     style="fill:#e908f8;fill-opacity:1;stroke:#ffffff;stroke-width:3.7176;stroke-miterlimit:4;stroke-dasharray:none;stroke-opacity:1" />
  <path
     fill="#ff4655"
     opacity="1"
     d="m 324.69099,17.333971 c 2.14185,-2.90564 5.65381,-4.6695 9.26812,-4.59075 4.45689,0.008 8.92167,-0.0788 13.37856,0.0394 1.53547,-0.165361 2.39381,1.425259 2.19694,2.779649 0,35.198403 0,70.404674 0,105.60306 0.20474,1.35439 -0.62207,3.00801 -2.19694,2.83477 -5.51993,0.063 -11.03987,0.063 -16.55981,-0.008 -2.02371,0.0551 -3.62218,-1.37014 -4.75611,-2.88989 -9.5437,-11.98477 -19.13467,-23.930185 -28.6784,-35.914966 -9.71696,12.102901 -19.37881,24.245166 -29.07214,36.371676 -1.03942,1.33077 -2.54344,2.44893 -4.30727,2.4253 -6.32312,0.14174 -12.65413,-0.0315 -18.9851,0.0709 -1.55125,-0.10236 -3.49623,0.39372 -4.45689,-1.22052 27.89101,-35.292896 56.15994,-70.302308 84.16904,-105.500703 m -15.72507,51.057295 c 6.55146,8.14997 13.00843,16.370802 19.60714,24.473522 0.0473,-16.339302 0.0316,-32.670732 0.0161,-49.010027 -6.55934,8.165705 -13.09507,16.347165 -19.6229,24.536505 z"
     id="path49"
     style="fill:#e908f8;fill-opacity:1;stroke:#ffffff;stroke-width:3.7176;stroke-miterlimit:4;stroke-dasharray:none;stroke-opacity:1" />
  <path
     fill="#ff4655"
     opacity="1"
     d="m 374.53572,15.538621 c -0.14954,-1.24415 0.52756,-2.77178 1.96859,-2.74028 5.55141,-0.133871 11.12644,-0.0788 16.68577,-0.0236 1.59061,-0.173231 2.58278,1.40164 2.33082,2.8584 0.0316,29.497359 0.0161,58.994721 0.007,88.499959 15.43375,0.0551 30.86749,-0.0394 46.29338,0.0394 1.32289,-0.28348 2.14969,1.39376 1.1024,2.28357 -4.01591,5.17345 -8.16571,10.25241 -12.25251,15.3865 -1.23627,1.66936 -3.33085,2.34655 -5.34669,2.19695 -16.26843,-0.0551 -32.54473,0.063 -48.81317,-0.0551 -1.49612,0.063 -2.1182,-1.55912 -1.97645,-2.81114 0,-35.206276 -0.007,-70.420427 0,-105.634564 z"
     id="path51"
     style="fill:#e908f8;fill-opacity:1;stroke:#ffffff;stroke-width:3.7176;stroke-miterlimit:4;stroke-dasharray:none;stroke-opacity:1" />
  <path
     fill="#ff4655"
     opacity="1"
     d="m 580.19041,15.577991 c -0.36223,-1.62212 0.94492,-3.09463 2.59066,-2.8269 28.12723,-0.0315 56.24656,-0.0157 84.36592,-0.008 1.29928,-0.18111 2.83476,0.62995 2.70879,2.11033 0.0865,7.622379 0.0161,15.252629 0.0316,22.875018 0.16542,1.81897 -0.79533,3.417471 -1.91347,4.756111 -8.11847,10.039812 -16.1031,20.181992 -24.24516,30.206052 -0.40159,0.7087 -1.74024,1.64574 -0.72444,2.46468 12.29972,15.465242 24.70184,30.859628 36.98586,46.332738 0.88982,0.74019 0.90556,2.50405 -0.55119,2.46468 -7.29166,0.15748 -14.59119,0.0787 -21.88288,0.0394 -2.85838,0.0394 -4.47261,-2.61429 -6.05537,-4.56713 -11.29182,-14.16597 -22.59154,-28.324076 -33.92275,-42.450678 -0.84254,-1.03942 -2.13396,-2.54342 -0.96068,-3.82694 10.66978,-13.54391 21.53639,-26.946071 32.26127,-40.458481 -15.88261,-0.0709 -31.77305,0.133872 -47.64776,-0.102358 -0.2835,29.765089 0.0161,59.545921 -0.14954,89.311007 0.18109,1.38589 -1.25202,2.30719 -2.49617,2.1182 -5.51207,0 -11.0241,0.0866 -16.53615,-0.0394 -1.46464,0.0157 -2.05525,-1.62999 -1.86623,-2.85052 0.007,-35.182646 0,-70.365287 0.007,-105.547938 z"
     id="path53"
     style="fill:#e908f8;fill-opacity:1;stroke:#ffffff;stroke-width:3.7176;stroke-miterlimit:4;stroke-dasharray:none;stroke-opacity:1" />
  <path
     fill="#ff4655"
     opacity="1"
     d="m 697.90427,15.633111 c -0.25201,-1.41739 0.66928,-3.03951 2.2599,-2.8584 5.25223,-0.0945 10.52013,-0.0394 15.78018,-0.0236 1.96862,-0.11811 3.8742,0.803189 5.03174,2.40168 26.24523,32.836089 52.48262,65.680053 78.72788,98.516139 2.25991,3.03163 4.9687,5.75616 6.9294,9.00827 -0.18896,0.3071 -0.56695,0.9213 -0.75591,1.2284 -6.3625,0.32285 -12.74861,0 -19.11898,0.14175 -2.51191,0.0394 -5.55142,0.25198 -7.2129,-2.04733 -9.85868,-12.22889 -19.62292,-24.536525 -29.43434,-36.804776 -9.71698,12.095021 -19.3867,24.237286 -29.07215,36.355936 -1.03943,1.34651 -2.55917,2.44892 -4.32304,2.44105 -5.4963,0.0787 -10.99256,0.0551 -16.481,0.0159 -1.63787,0.22836 -2.59068,-1.42526 -2.33078,-2.86626 0,-35.166906 0.007,-70.341687 0,-105.508576 m 20.95362,28.27682 c -0.0236,16.331438 -0.0236,32.654978 0,48.98641 6.55146,-8.15783 13.07141,-16.339312 19.59926,-24.512882 -6.54359,-8.14997 -13.01632,-16.36293 -19.59926,-24.473528 z"
     id="path55"
     style="fill:#e908f8;fill-opacity:1;stroke:#ffffff;stroke-width:3.7176;stroke-miterlimit:4;stroke-dasharray:none;stroke-opacity:1" />
  <path
     fill="#ff4655"
     opacity="1"
     d="m 790.44372,15.664601 c -0.16542,-1.22052 0.37797,-2.81114 1.81894,-2.84264 5.23646,-0.21261 10.48081,-0.0315 15.71726,-0.0866 2.03158,-0.13386 4.15765,0.53546 5.39394,2.23632 20.19772,25.213709 40.31671,50.490411 60.53021,75.688373 0,-25.016852 -0.007,-50.033704 0,-75.058423 -0.33859,-1.57487 0.88981,-3.1025 2.53557,-2.85052 5.54353,0.008 11.08708,-0.12599 16.62276,0.0709 1.41738,0.0551 1.92922,1.62999 1.77174,2.84264 0,35.151162 0,70.302313 0,105.453459 0.16543,1.1969 -0.36225,2.81902 -1.79535,2.84264 -5.5042,0.1575 -11.02414,0.0473 -16.52829,0.0551 -1.81899,0.0709 -3.54348,-0.80318 -4.6144,-2.24419 -20.1741,-25.190085 -40.27735,-50.443168 -60.46722,-75.617504 -0.0235,14.764426 0.0394,29.536726 -0.0235,44.301158 0.38584,1.31502 -1.48826,2.44105 -2.28359,1.24415 -5.79557,-7.03179 -11.39424,-14.228962 -17.11102,-21.323762 -1.27564,-1.39376 -1.68513,-3.26786 -1.59062,-5.10259 0.0316,-16.536157 -0.007,-33.072316 0.0236,-49.608476 z"
     id="path57"
     style="fill:#e908f8;fill-opacity:1;stroke:#ffffff;stroke-width:3.7176;stroke-miterlimit:4;stroke-dasharray:none;stroke-opacity:1" />
  <path
     fill="#ff4655"
     opacity="1"
     d="m 909.31508,14.845671 c -0.16542,-1.43313 1.36227,-2.25994 2.61428,-2.09458 23.11912,-0.0394 46.23825,0 69.35737,-0.0157 2.0001,-0.12599 4.09469,0.52758 5.31522,2.2127 4.0946,5.10258 8.2286,10.189419 12.25243,15.355 1.0631,0.866179 0.2678,2.582789 -1.07093,2.346559 -12.08707,0.09451 -24.18208,0 -36.27709,0.0394 -0.0551,29.481612 0.0709,58.963234 0.063,88.44484 0.28346,1.40951 -0.68509,3.03163 -2.25994,2.86626 -5.51995,0.0472 -11.04774,0.0709 -16.55979,-0.008 -1.17328,0.10238 -2.19695,-0.93705 -2.07885,-2.09458 -0.19685,-29.733596 -0.007,-59.475058 -0.16542,-89.208649 -9.53585,-0.02361 -19.07959,0.0315 -28.60755,-0.0157 -1.26778,0.149611 -2.77965,-0.72445 -2.5828,-2.157579 -0.0789,-5.2207 -0.0865,-10.44928 0,-15.66998 z"
     id="path59"
     style="fill:#e908f8;fill-opacity:1;stroke:#ffffff;stroke-width:3.7176;stroke-miterlimit:4;stroke-dasharray:none;stroke-opacity:1" />
</svg>
